<?xml version="1.0" standalone="no"?><!DOCTYPE svg PUBLIC "-//W3C//DTD SVG 1.1//EN" "http://www.w3.org/Graphics/SVG/1.1/DTD/svg11.dtd"><svg t="1679667319630" class="icon" viewBox="0 0 1024 1024" version="1.1" xmlns="http://www.w3.org/2000/svg" p-id="3686" xmlns:xlink="http://www.w3.org/1999/xlink" width="200" height="200"><path d="M776.192 730.88a403.328 403.328 0 0 0 97.28-262.144A404.736 404.736 0 1 0 64 468.736a404.736 404.736 0 0 0 522.944 387.2 32 32 0 0 0-18.688-61.184 340.736 340.736 0 1 1 241.216-326.016 340.288 340.288 0 0 1-97.152 237.312 36.992 36.992 0 0 0 0.384 51.968l150.016 149.952a32 32 0 0 0 45.248-45.248l-131.776-131.84z" fill="#ffffff" p-id="3687"></path></svg>